<?xml version="1.0" encoding="UTF-8" standalone="no"?>
<svg
   id="Layer_1"
   viewBox="0 0 356.80001 107"
   width="485.24802"
   height="145.52"
   version="1.1"
   sodipodi:docname="mqu.svg"
   inkscape:version="1.3.2 (091e20e, 2023-11-25, custom)"
   xmlns:inkscape="http://www.inkscape.org/namespaces/inkscape"
   xmlns:sodipodi="http://sodipodi.sourceforge.net/DTD/sodipodi-0.dtd"
   xmlns="http://www.w3.org/2000/svg"
   xmlns:svg="http://www.w3.org/2000/svg">
  <defs
     id="defs23" />
  <sodipodi:namedview
     id="namedview23"
     pagecolor="#ffffff"
     bordercolor="#000000"
     borderopacity="0.25"
     inkscape:showpageshadow="2"
     inkscape:pageopacity="0.0"
     inkscape:pagecheckerboard="0"
     inkscape:deskcolor="#d1d1d1"
     inkscape:zoom="8.1984"
     inkscape:cx="128.86661"
     inkscape:cy="26.651542"
     inkscape:window-width="1920"
     inkscape:window-height="1057"
     inkscape:window-x="1912"
     inkscape:window-y="-8"
     inkscape:window-maximized="1"
     inkscape:current-layer="Layer_1" />
  <style
     id="style1">.st0{fill:#d6001c}.st1{fill:#76232f}.st2{fill:#fff}.st3{fill:#b2b2b2}</style>
  <path
     d="m 133.5,32.4 -5.1,-9.1 c -1.7,-3 -2.3,-4.9 -2.3,-4.9 h -0.2 c 0,0 0.3,1.8 0.3,5.2 v 15.8 h -5.4 V 10 h 5.9 l 6.6,12.4 c 1.3,2.5 1.7,3.8 1.7,3.8 h 0.2 c 0,0 0.4,-1.4 1.7,-3.8 L 143.4,10 h 5.7 v 29.5 h -5.4 V 23.6 c 0,-3.5 0.2,-5.2 0.2,-5.2 h -0.2 c 0,0 -0.6,2 -2.2,4.9 l -5.1,9.1 z M 172.6,32 h -11.8 l -2.6,7.4 h -5.6 L 163.4,10 h 6.9 L 181,39.4 h -5.8 z m -10.3,-4.4 h 8.7 l -1.9,-5.5 c -1.7,-4.7 -2.3,-8 -2.3,-8 h -0.2 c 0,0 -0.7,3.3 -2.3,7.9 z m 45.3,6.1 c -2.7,4.3 -6,6.3 -12.1,6.3 -7.8,0 -13.1,-5.5 -13.1,-15.3 0,-9.8 5.5,-15.4 14,-15.4 5.6,0 9.4,2.5 11.4,7.2 l -5.1,2.5 c -1.1,-3.3 -3.3,-5.1 -6.6,-5.1 -5.2,0 -8.2,4.1 -8.2,10.8 0,6.6 2.7,10.5 8.1,10.5 3.3,0 5.6,-1.4 7.4,-4.5 z m 24.7,13.5 c -6.9,0.1 -10.5,-3.1 -12,-7.4 -6.5,-1.2 -10.4,-6.5 -10.4,-15 0,-9.9 5.2,-15.4 13.5,-15.4 8.3,0 13.5,5.5 13.5,15.4 0,8.9 -4.3,14.3 -11.2,15.2 2,2 5.1,2.8 8.1,2.6 z M 215.6,24.8 c 0,6.6 2.7,10.7 7.9,10.7 5.3,0 8,-4.1 8,-10.7 0,-6.7 -2.7,-10.7 -8,-10.7 -5.2,0 -7.9,4 -7.9,10.7 z m 49,-14.8 v 19.8 c 0,7.8 -5.6,10.3 -11.7,10.3 -6,0 -11.6,-2.6 -11.6,-10.3 V 10 h 5.4 v 18.3 c 0,5 2,7.4 6.3,7.4 4.3,0 6.3,-2.4 6.3,-7.3 V 10 Z m 22.1,22 h -11.8 l -2.6,7.4 h -5.6 L 277.4,10 h 6.9 L 295,39.4 h -5.8 z m -10.3,-4.4 h 8.7 l -1.9,-5.5 c -1.6,-4.7 -2.3,-8 -2.3,-8 h -0.2 c 0,0 -0.7,3.3 -2.3,7.9 z m 38.7,11.8 c -0.8,-0.8 -1.1,-1.7 -1.4,-2.9 l -1.1,-4.9 c -0.8,-3.2 -2.4,-3.8 -5,-3.8 H 304 v 11.5 h -5.4 V 10 h 10.7 c 6.7,0 10.3,2.7 10.3,8.6 0,4.6 -3,7.1 -6.7,7.4 2.8,0.4 4.3,1.6 5.1,4.6 l 1.5,5.7 c 0.3,1.2 0.8,2.2 1.6,3.1 z M 303.9,23.6 h 5.1 c 3.4,0 5,-1.4 5,-4.6 0,-2.9 -1.6,-4.6 -5,-4.6 h -5.1 z M 331,10 v 29.5 h -5.4 V 10 Z m 25.8,29.4 H 338.1 V 10 h 18.7 v 4.7 h -13.4 v 7.8 h 11.8 v 4.6 H 343.4 V 35 h 13.4 z"
     id="path1" />
  <g
     id="g21">
    <path
       class="st0"
       d="m 54.6,58.3 8.6,4.9 h 0.6 l -0.1,0.3 28.9,16.7 V 26.7 l -38,22 z"
       id="path2" />
    <path
       class="st1"
       d="M 29.5,63.2 38,58.3 V 48.7 L 0,26.7 V 80.2 L 29,63.5 28.9,63.2 Z"
       id="path3" />
    <path
       class="st0"
       d="M 46.3,0 92.6,26.7 V 0 Z"
       id="path4" />
    <path
       class="st1"
       d="M 0,0 V 26.7 L 46.3,0 Z M 65.3,70.7 V 74 h -1.6 c -1.5,0.9 -2.5,2.3 -2.9,4.6 h -1.7 l 0.2,3.6 0.9,16.6 32.3,-18.6 -28.8,-16.7 -1.6,7.2 z m -2.1,-7.5 -8.6,-4.9 v 4.9 z"
       id="path5" />
    <path
       class="st0"
       d="M 30.6,70.7 29,63.5 0,80.2 32.3,98.8 33.4,78.6 H 31.8 C 31.4,76.3 30.4,74.8 28.9,74 H 27.3 V 70.7 Z M 38,58.3 29.5,63.2 H 38 Z"
       id="path6" />
    <path
       class="st2"
       d="m 47.4,32.9 c 0.2,0 0.4,0 0.6,-0.1 0.4,-0.4 0.7,-1 0.7,-1.7 0,-1.3 -1.1,-2.4 -2.4,-2.4 -0.2,0 -0.4,0 -0.6,0.1 -0.4,0.4 -0.7,1 -0.7,1.7 0,1.3 1.1,2.4 2.4,2.4 z m 2.7,46.4 c -6.7,0.1 -8.6,4.2 -8.6,4.2 l -0.4,0.8 -0.7,19.3 5.9,3.4 14,-8.1 -0.9,-16.6 c 0,-0.3 -1.7,-3.1 -9.3,-3 z"
       id="path7" />
    <g
       id="g8">
      <path
         class="st3"
         d="M 27.3,70.7 V 74 h 1.6 c 1.5,0.9 2.5,2.3 2.9,4.6 h 1.6 l -1.1,20.2 8.2,4.7 0.7,-19.3 0.4,-0.8 c 0,0 1.9,-4.1 8.6,-4.2 7.6,-0.1 9.3,2.7 9.4,2.9 l -0.2,-3.6 h 1.7 c 0.4,-2.3 1.4,-3.8 2.9,-4.6 h 1.6 v -3.3 c -0.3,0.1 -38.3,0.1 -38.3,0.1 z"
         id="path8" />
    </g>
    <path
       class="st3"
       d="m 47.9,92.9 c 0,-0.6 -0.7,-1.6 -1.6,-1.6 -0.9,0 -1.6,1 -1.6,1.6 V 97 h 3.2 z"
       id="path9" />
    <g
       id="g10">
      <path
         class="st1"
         d="m 40.2,45.8 v 2.3 l 6.1,3.6 6.2,-3.6 v -2.3 z m 6.1,9.5 -6.1,3.6 v 2.3 h 12.3 v -2.3 z"
         id="path10" />
    </g>
    <g
       id="g11">
      <path
         class="st1"
         d="m 54.6,43.8 h 0.7 c 0.5,0 1,0.4 1,1 0,0.5 -0.4,1 -1,1 h -0.7 v 2.9 L 92.6,26.8 46.3,0 v 28.8 c 1.3,0 2.4,1.1 2.4,2.4 0,0.6 -0.3,1.2 -0.7,1.7 -0.4,0.3 -0.6,0.8 -0.6,1.3 0,0.6 0.3,1.2 0.8,1.5 3.7,0.9 6.4,4.2 6.4,8.1 z"
         id="path11" />
    </g>
    <g
       id="g12">
      <path
         class="st3"
         d="m 46.3,61.2 h -6.1 v -2.4 l 6.1,-3.5 v -3.7 l -6.1,-3.5 v -2.4 h 2.7 c -0.2,-0.1 -0.3,-0.5 -0.3,-1 0,-0.6 0.2,-1 0.4,-1 h 0.2 c 0,-4.6 1.4,-8.3 3.1,-8.3 0.6,0 1.3,0.1 1.9,0.2 -0.5,-0.3 -0.8,-0.9 -0.8,-1.5 0,-0.5 0.2,-1 0.6,-1.3 -0.2,0 -0.4,0.1 -0.6,0.1 -1.3,0 -2.4,-1.1 -2.4,-2.4 0,-0.7 0.3,-1.3 0.7,-1.7 -1,0.3 -1.8,1.2 -1.8,2.3 0,0.6 0.3,1.2 0.7,1.7 0.4,0.3 0.6,0.8 0.6,1.4 0,0.6 -0.3,1.2 -0.8,1.6 -3.7,0.8 -6.4,4.1 -6.4,8.1 h -0.6 c -0.6,0 -1,0.4 -1,1 0,0.5 0.4,1 1,1 H 38 v 17.4 h 8.3 z"
         id="path12" />
    </g>
    <path
       class="st2"
       d="m 46.3,51.7 v 3.7 l 6.1,3.5 v 2.4 h -6.1 v 2 H 28.9 l 1.7,7.5 h 31.6 l 1.7,-7.5 H 54.7 V 45.8 h 0.7 c 0.5,0 1,-0.4 1,-1 0,-0.6 -0.4,-1 -1,-1 h -0.7 c 0,-4.6 -3.7,-8.3 -8.3,-8.3 -1.7,0 -3.1,3.7 -3.1,8.3 H 43 c -0.2,0 -0.4,0.4 -0.4,1 0,0.5 0.1,0.9 0.3,1 h 9.6 v 2.4 z"
       id="path13" />
    <path
       class="st1"
       d="m 40.2,51.2 3.9,2.3 -3.9,2.3 z"
       id="path14" />
    <path
       class="st0"
       d="m 52.5,51.2 -4,2.3 4,2.3 z"
       id="path15" />
    <path
       class="st2"
       d="m 63.6,29 -3.6,3.3 0.4,-4.8 -4.8,-0.8 4,-2.7 -2.4,-4.2 4.6,1.4 1.8,-4.4 1.7,4.4 4.6,-1.4 -2.4,4.2 4,2.7 -4.8,0.8 0.4,4.8 z"
       id="path16" />
    <g
       id="g17">
      <path
         class="st0"
         d="m 37.4,45.8 c -0.6,0 -1,-0.4 -1,-1 0,-0.6 0.4,-1 1,-1 H 38 c 0,-3.9 2.7,-7.2 6.4,-8.1 0.5,-0.4 0.8,-0.9 0.8,-1.6 0,-0.6 -0.2,-1 -0.6,-1.4 -0.4,-0.4 -0.7,-1 -0.7,-1.7 0,-1.1 0.8,-2 1.8,-2.3 0.2,0 0.4,-0.1 0.6,-0.1 V 0 L 0,26.7 38,48.6 v -2.9 z"
         id="path17" />
    </g>
    <g
       id="g20">
      <path
         class="st3"
         d="m 39,69.2 h 2.4 l -0.3,-4.5 h -2.7 z m 4,0 h 3.2 v -4.5 h -3.5 z"
         id="path18" />
      <path
         class="st0"
         d="m 35.1,69.2 h 2.2 l -0.6,-4.5 h -2.5 z m -3.3,0 h 1.7 l -0.8,-4.5 h -1.8 z"
         id="path19" />
      <path
         class="st1"
         d="m 55.3,69.2 h 2.2 l 0.8,-4.5 h -2.5 z m 3.9,0 H 61 l 1,-4.5 h -2 z"
         id="path20" />
    </g>
  </g>
  <g
     id="g22">
    <path
       d="m 134.3,49.7 h 2.6 v 14.8 c 0,3.5 -0.6,5.8 -1.7,6.9 -1.2,1.2 -2.7,1.8 -4.5,1.8 -1.9,0 -3.4,-0.6 -4.5,-1.9 -0.6,-0.7 -1,-1.5 -1.3,-2.6 -0.2,-1 -0.3,-2.7 -0.3,-5 v -14 H 127 V 48 h -8.8 v 1.7 h 2.6 v 14.7 c 0,3.6 0.8,6.3 2.3,7.9 1.5,1.7 3.9,2.5 7.2,2.5 3.2,0 5.6,-0.9 7.1,-2.8 0.8,-1 1.4,-2.1 1.6,-3.2 0.3,-1.1 0.4,-2.9 0.4,-5.3 V 49.7 H 142 V 48 h -7.9 z m 28,10.9 c 0,-1.9 -0.5,-3.4 -1.4,-4.5 -0.9,-1.1 -2.2,-1.6 -3.9,-1.6 -1.4,0 -2.7,0.3 -3.9,1 -1.2,0.7 -2.2,1.7 -3.1,3 v -3.6 h -6.1 v 1.8 h 2.6 v 15.8 h -2.6 v 1.8 h 8.8 V 72.5 H 150 V 60.2 c 0.9,-1 1.9,-1.8 2.8,-2.3 1,-0.5 1.9,-0.8 2.9,-0.8 1.1,0 1.9,0.3 2.3,0.9 0.4,0.6 0.7,1.7 0.7,3.2 v 11.3 h -2.6 v 1.8 h 8.8 v -1.8 h -2.6 z m 10.9,-5.7 H 167 v 1.8 h 2.7 V 72.4 H 167 v 1.8 h 8.8 v -1.8 h -2.6 z m -3.5,-7 h 3.5 v 3.5 h -3.5 z m 20.4,8.8 h 2.7 l -5.9,13.1 -5.5,-13.1 h 2.7 v -1.8 h -8 v 1.8 h 1.6 l 7.3,17.7 h 1.8 l 7.9,-17.7 h 1.5 v -1.8 h -6.1 z m 14.6,-2.2 c -2.5,0 -4.5,0.9 -6.1,2.8 -1.6,1.8 -2.4,4.2 -2.4,7.1 0,3 0.9,5.5 2.6,7.4 1.8,1.9 4.1,2.9 6.9,2.9 1.9,0 3.9,-0.4 6.1,-1.3 v -2.6 c -1.8,1 -3.7,1.5 -5.6,1.5 -2,0 -3.5,-0.7 -4.6,-2.2 -1.1,-1.4 -1.7,-3.4 -1.7,-6 h 11.9 v -0.7 c 0,-2.9 -0.6,-5.1 -1.9,-6.7 -1.1,-1.5 -2.9,-2.2 -5.2,-2.2 z m 3.5,7.9 h -8 c 0.1,-2 0.6,-3.6 1.3,-4.6 0.7,-1 1.7,-1.5 3.1,-1.5 2.4,0 3.6,1.9 3.6,5.7 z m 13.3,-3.9 v -3.6 h -6.1 v 1.8 h 2.6 v 15.8 h -2.6 v 1.8 h 8.8 v -1.8 h -2.6 V 60.2 c 1.6,-1.8 3.2,-2.6 4.7,-2.6 h 0.6 v 2 h 2.2 v -4.8 c -0.4,-0.1 -0.8,-0.2 -1.2,-0.2 -2.8,-0.1 -4.9,1.2 -6.4,3.9 z m 18.9,5 -1.6,-0.7 c -1.6,-0.7 -2.7,-1.3 -3.3,-1.8 -0.6,-0.5 -0.9,-1.1 -0.9,-1.9 0,-0.8 0.3,-1.5 0.9,-2.1 0.6,-0.6 1.4,-0.9 2.3,-0.9 0.6,0 1.2,0.1 1.8,0.3 0.6,0.2 1.3,0.5 1.9,1 v 2.2 h 2.2 v -4.2 c -1,-0.4 -2,-0.7 -3,-0.8 -1,-0.2 -1.9,-0.3 -2.9,-0.3 -1.9,0 -3.5,0.5 -4.7,1.5 -1.2,1 -1.9,2.3 -1.9,3.9 0,2.5 1.8,4.5 5.5,5.9 l 1.8,0.7 c 2.1,0.8 3.1,1.9 3.1,3.3 0,0.9 -0.3,1.7 -1.1,2.3 -0.7,0.6 -1.6,0.9 -2.7,0.9 -0.7,0 -1.4,-0.1 -2.2,-0.4 -0.7,-0.3 -1.5,-0.7 -2.3,-1.3 v -2.2 h -2.2 v 4.3 c 1,0.5 2.1,0.8 3.2,1.1 1.1,0.2 2.2,0.4 3.4,0.4 2.2,0 4,-0.5 5.4,-1.6 1.4,-1.1 2.1,-2.5 2.1,-4.2 0,-1.2 -0.4,-2.3 -1.1,-3 -0.7,-0.9 -1.9,-1.7 -3.7,-2.4 z m 10,-15.6 h 3.5 v 3.5 h -3.5 z m 3.6,7 h -6.2 v 1.8 h 2.6 v 15.7 h -2.6 v 1.8 h 8.8 V 72.4 H 254 Z m 17.4,15 h -1.9 c 0,0 0,1.9 -1.8,2.6 -0.3,0.1 -0.6,0.2 -0.8,0.2 -0.8,0 -1.3,-0.3 -1.7,-1 -0.4,-0.7 -0.6,-1.7 -0.6,-3 v -12 h 4.9 V 55 h -4.9 v -4.4 l -3.5,0.9 V 55 h -2.6 v 1.7 h 2.6 v 11.6 c 0,2.2 0.5,3.9 1.4,4.9 0.9,1 2.3,1.6 4,1.6 0.3,0 0.6,0 0.8,-0.1 h 0.3 c 0.1,0 0.3,-0.1 0.4,-0.1 0.1,0 0.1,0 0.2,-0.1 0.1,0 0.2,-0.1 0.3,-0.1 0.1,0 0.1,0 0.2,-0.1 1.2,-0.8 2.5,-2 2.7,-4.4 z"
       id="path21" />
    <path
       d="m 285.8,55 v 1.8 h 2.6 l -5.8,13.1 -5.5,-13.1 h 2.6 V 55 h -8 v 1.8 h 1.5 l 7.4,17.8 c -0.3,0.7 -0.6,1.3 -1,1.9 -0.7,1.1 -1.3,2.1 -2.5,2.6 -0.6,0.3 -1.3,0.5 -2,0.5 -0.8,0 -1.5,-0.3 -2.2,-0.7 v -1.6 h -1.8 v 3.4 c 0.3,0.2 1,0.4 1.7,0.5 1,0.2 1.9,0.2 2.9,0.1 1.5,-0.2 2.8,-0.8 3.8,-1.8 0.7,-0.8 1.6,-2.2 2.1,-3.1 0.2,-0.3 0.3,-0.5 0.3,-0.8 l 0.5,-1 7.9,-17.7 h 1.5 V 55 Z"
       id="path22" />
  </g>
  <g
     id="g23">
    <path
       d="m 122.1,97 c 0.2,1.2 1,1.7 2,1.7 1,0 1.8,-0.5 1.8,-1.4 0,-0.9 -0.4,-1.3 -2,-1.9 -1.5,-0.5 -2.8,-1.2 -2.8,-3 0,-2 1.6,-2.8 3.1,-2.8 1.8,0 3.1,0.7 3.3,2.6 l -1.5,0.3 c -0.1,-1.1 -0.8,-1.6 -1.8,-1.6 -0.9,0 -1.6,0.5 -1.6,1.4 0,1 0.8,1.3 2.1,1.8 1.5,0.5 2.7,1.1 2.7,3 0,1.9 -1.5,2.8 -3.4,2.8 -1.9,0 -3.1,-0.8 -3.4,-2.5 z m 11.6,-4 c 0.6,1.1 0.7,1.7 0.7,1.7 h 0.1 c 0,0 0.1,-0.5 0.6,-1.7 l 1.4,-3.1 h 1.6 l -3,6.1 v 3.7 h -1.5 V 96 l -3.2,-6.1 h 1.7 z m 8.5,6.7 V 90 h 3 c 2.7,0 4.7,1.3 4.7,4.8 0,3.6 -2.1,5 -4.7,5 z m 2.8,-1.3 c 1.9,0 3.3,-1 3.3,-3.6 0,-2.7 -1.4,-3.6 -3.1,-3.6 h -1.5 v 7.2 z m 14.8,-2.9 c 0.6,0.9 1.1,1.8 1.1,1.8 h 0.1 c 0,0 -0.1,-1 -0.1,-2.3 v -5.2 h 1.5 v 9.7 H 161 l -3.9,-5.6 C 156.5,93 156,92 156,92 h -0.1 c 0,0 0.1,1 0.1,2.3 v 5.1 h -1.5 v -9.7 h 1.6 z m 13.9,4.2 h -6 V 90 h 6 v 1.3 h -4.5 v 2.9 h 4 v 1.3 h -4 v 2.9 h 4.5 z m 6.7,-6.7 c 0.6,1.1 0.7,1.7 0.7,1.7 h 0.1 c 0,0 0.1,-0.5 0.6,-1.7 l 1.4,-3.1 h 1.6 l -3,6.1 v 3.7 h -1.5 V 96 l -3.2,-6.1 h 1.7 z m 9.9,1.1 c 0.6,0 1.1,0.5 1.1,1.1 0,0.6 -0.5,1.1 -1.1,1.1 -0.6,0 -1.1,-0.5 -1.1,-1.1 0,-0.6 0.5,-1.1 1.1,-1.1 z M 203,97 h -4 l -0.9,2.7 h -1.6 l 3.6,-9.7 h 2 l 3.5,9.7 H 204 Z m -3.6,-1.2 h 3.1 l -0.7,-2.2 C 201.3,92 201,91 201,91 c 0,0 -0.2,1 -0.8,2.5 z m 17.2,-5.9 v 6.5 c 0,2.5 -1.9,3.4 -3.8,3.4 -1.9,0 -3.8,-0.9 -3.8,-3.4 v -6.5 h 1.5 v 6.2 c 0,1.8 0.8,2.5 2.2,2.5 1.4,0 2.2,-0.8 2.2,-2.5 v -6.2 z m 5.3,7.1 c 0.2,1.2 1,1.7 2,1.7 1,0 1.8,-0.5 1.8,-1.4 0,-0.9 -0.4,-1.3 -2,-1.9 -1.5,-0.5 -2.8,-1.2 -2.8,-3 0,-2 1.6,-2.8 3.1,-2.8 1.8,0 3.1,0.7 3.3,2.6 l -1.5,0.3 c -0.1,-1.1 -0.8,-1.6 -1.8,-1.6 -0.9,0 -1.6,0.5 -1.6,1.4 0,1 0.8,1.3 2.1,1.8 1.5,0.5 2.7,1.1 2.7,3 0,1.9 -1.5,2.8 -3.4,2.8 -1.9,0 -3.1,-0.8 -3.4,-2.5 z m 11.5,2.7 v -8.4 h -2.8 V 90 h 7.2 v 1.3 H 235 v 8.4 z m 13.8,0 c -0.2,-0.3 -0.3,-0.5 -0.4,-0.9 l -0.4,-1.7 c -0.3,-1.1 -0.9,-1.4 -1.8,-1.4 h -1.3 v 4 h -1.5 V 90 h 3.4 c 2.2,0 3.3,0.9 3.3,2.8 0,1.5 -1,2.3 -2.2,2.4 v 0.1 c 0.9,0.1 1.4,0.5 1.7,1.6 l 0.5,1.9 c 0.1,0.4 0.3,0.7 0.5,1 h -1.8 z m -3.9,-5.3 h 1.8 c 1.2,0 1.8,-0.5 1.8,-1.6 0,-1 -0.6,-1.6 -1.8,-1.6 h -1.8 z m 15.3,2.6 h -4 l -0.9,2.7 h -1.6 l 3.6,-9.7 h 2 l 3.5,9.7 h -1.6 z m -3.5,-1.2 h 3.1 l -0.7,-2.2 C 257,92.1 256.7,91 256.7,91 h -0.1 c 0,0 -0.2,1 -0.8,2.5 z m 11.6,-5.9 v 8.4 h 4.4 v 1.3 h -5.9 v -9.7 z m 10.1,0 v 9.7 h -1.5 v -9.7 z m 10.6,7.1 h -4 l -0.9,2.7 h -1.6 l 3.6,-9.7 h 2 l 3.5,9.7 h -1.6 z m -3.6,-1.2 h 3.1 l -0.7,-2.2 C 285.7,92.1 285.4,91 285.4,91 h -0.1 c 0,0 -0.2,1 -0.8,2.5 z"
       id="path23" />
  </g>
</svg>
