<?xml version="1.0" encoding="UTF-8" standalone="no"?>
<svg
   width="93.891136mm"
   height="22.225mm"
   viewBox="0 0 354.86414 84.000002"
   fill="none"
   version="1.1"
   id="svg4"
   sodipodi:docname="ortto.svg"
   inkscape:version="1.3.2 (091e20e, 2023-11-25, custom)"
   xmlns:inkscape="http://www.inkscape.org/namespaces/inkscape"
   xmlns:sodipodi="http://sodipodi.sourceforge.net/DTD/sodipodi-0.dtd"
   xmlns="http://www.w3.org/2000/svg"
   xmlns:svg="http://www.w3.org/2000/svg">
  <defs
     id="defs4" />
  <sodipodi:namedview
     id="namedview4"
     pagecolor="#ffffff"
     bordercolor="#000000"
     borderopacity="0.25"
     inkscape:showpageshadow="2"
     inkscape:pageopacity="0.0"
     inkscape:pagecheckerboard="0"
     inkscape:deskcolor="#d1d1d1"
     inkscape:zoom="1.2157731"
     inkscape:cx="199.46157"
     inkscape:cy="51.40762"
     inkscape:window-width="1920"
     inkscape:window-height="1057"
     inkscape:window-x="1912"
     inkscape:window-y="-8"
     inkscape:window-maximized="1"
     inkscape:current-layer="svg4"
     inkscape:document-units="mm" />
  <path
     d="m 51.979902,49.98805 c 0,9.92915 -8.0703,18.00575 -17.995774,18.00575 -9.922008,0 -17.992588,-8.0766 -17.992588,-18.00575 0,-9.9288 8.07058,-18.005295 17.992588,-18.005295 9.925474,0 17.995774,8.076495 17.995774,18.005295 z m 15.995,0 c 0,-18.753735 -15.24705,-34.011635 -33.98745,-34.011635 C 15.24698,15.976415 0,31.234315 0,49.98805 0,68.7421 15.24698,84 33.987452,84 c 18.7404,0 33.98745,-15.2579 33.98745,-34.01195 z m 22.3867,-17.8157 H 112.44275 V 16.65832 H 99.040552 c -15.5295,0 -26.236,10.71742 -26.236,26.25798 v 40.4383 h 16.48675 V 33.24342 c 0,-0.592095 0.4788,-1.07107 1.0703,-1.07107 z M 188.04275,83.3546 H 201.4418 V 67.8405 h -22.08115 c -0.59185,0 -1.0703,-0.4788 -1.0703,-1.071 V 32.17235 H 201.4418 V 16.65832 H 178.2704 V 0 H 161.76685 V 16.65832 H 133.9786 V 0 h -16.50355 v 57.0899 c 0,15.5407 10.7065,26.2647 26.236,26.2682 H 157.1101 V 67.844 h -22.08115 c -0.5915,0 -1.0703,-0.47915 -1.0703,-1.071 l 0.0168,-34.60065 h 27.7949 l 0.0297,24.9242 c 0.007,15.54385 10.71315,26.25805 26.24265,26.25805 z M 255.8948,49.98805 c 0,9.92915 -8.07065,18.00575 -17.99595,18.00575 -9.92215,0 -17.9928,-8.0766 -17.9928,-18.00575 0,-9.9288 8.07065,-18.005295 17.9928,-18.005295 9.9218,0 17.99595,8.076495 17.99595,18.005295 z m 15.99465,0 c 0,-18.753735 -15.24705,-34.011635 -33.98745,-34.011635 -18.7404,0 -33.98745,15.2579 -33.98745,34.011635 C 203.91455,68.7421 219.1616,84 237.902,84 c 18.7404,0 33.98745,-15.2579 33.98745,-34.01195 z"
     fill="white"
     id="path1"
     style="fill:#252525;fill-opacity:1;stroke-width:3.5" />
  <path
     d="M 354.284,48.60555 344.2838,38.5966 c -0.6181,-0.6188 -1.4525,-0.9646 -2.3268,-0.9646 h -23.72965 c -1.09025,0 -1.97435,0.8848 -1.97435,1.97575 v 9.5732 c -0.0962,-0.20615 -0.2226,-0.406 -0.39235,-0.5754 L 305.85905,38.5966 c -0.6181,-0.6188 -1.4525,-0.9646 -2.3268,-0.9646 H 290.1101 c -1.09025,0 -1.97435,0.8848 -1.97435,1.97575 V 60.3974 c 0,1.09095 0.8841,1.97575 1.97435,1.97575 h 13.42215 c 0.8708,0 1.7087,-0.3458 2.3268,-0.9646 l 10.0016,-10.00895 c 0.16975,-0.16975 0.29925,-0.36925 0.39235,-0.5754 v 9.5732 c 0,1.09095 0.8841,1.97575 1.97435,1.97575 H 341.957 c 0.87115,0 1.7087,-0.3458 2.3268,-0.9646 L 354.284,51.3996 c 0.7735,-0.77175 0.7735,-2.0223 0,-2.79405 z"
     fill="#df5e42"
     id="path2"
     style="stroke-width:3.5" />
  <path
     d="m 354.7775,25.525465 c 0,-4.899685 -3.969,-8.867985 -8.8613,-8.867985 h -32.3218 c -4.46075,0 -8.15045,3.299695 -8.76855,7.590695 -0.61845,-4.294325 -4.30815,-7.590695 -8.7689,-7.590695 -4.89615,0 -8.86165,3.971625 -8.86165,8.867985 0,4.89972 3.969,8.86802 8.86165,8.86802 4.46075,0 8.15045,-3.299695 8.7689,-7.590695 0.6181,4.294325 4.3078,7.590695 8.76855,7.590695 h 32.3218 c 4.8958,0 8.8613,-3.971625 8.8613,-8.86802 z"
     fill="#2865fe"
     id="path3"
     style="stroke-width:3.5" />
  <path
     d="m 354.7775,74.48455 c 0,-4.8167 -3.836,-8.73495 -8.61455,-8.86795 -0.13615,-0.0035 -0.2527,0.1064 -0.2527,0.2429 v 6.81555 c -0.83405,-4.02815 -4.4009,-7.05845 -8.67545,-7.05845 -4.46075,0 -8.1501,3.2998 -8.76855,7.5908 -0.6181,-4.2945 -4.3078,-7.5908 -8.76855,-7.5908 h -23.63655 c -4.893,0 -8.86165,3.97145 -8.86165,8.86795 0,4.8965 3.96865,8.86795 8.86165,8.86795 h 23.63655 c 4.46075,0 8.15045,-3.2998 8.76855,-7.5908 0.61845,4.2945 4.3078,7.5908 8.76855,7.5908 4.27455,0 7.8414,-3.0268 8.67545,-7.05845 v 6.81555 c 0,0.1365 0.11305,0.2464 0.2527,0.2429 4.77855,-0.133 8.61455,-4.05125 8.61455,-8.86795 z"
     fill="#f7aba8"
     id="path4"
     style="stroke-width:3.5" />
</svg>
