<?xml version="1.0" encoding="UTF-8" standalone="no"?>
<!-- Created with Inkscape (http://www.inkscape.org/) -->

<svg
   width="81.42112mm"
   height="125.9069mm"
   viewBox="0 0 81.42112 125.9069"
   version="1.1"
   id="svg1"
   inkscape:version="1.3.2 (091e20e, 2023-11-25, custom)"
   sodipodi:docname="rocket-ship.svg"
   xmlns:inkscape="http://www.inkscape.org/namespaces/inkscape"
   xmlns:sodipodi="http://sodipodi.sourceforge.net/DTD/sodipodi-0.dtd"
   xmlns="http://www.w3.org/2000/svg"
   xmlns:svg="http://www.w3.org/2000/svg">
  <sodipodi:namedview
     id="namedview1"
     pagecolor="#ffffff"
     bordercolor="#000000"
     borderopacity="0.25"
     inkscape:showpageshadow="2"
     inkscape:pageopacity="0.0"
     inkscape:pagecheckerboard="0"
     inkscape:deskcolor="#d1d1d1"
     inkscape:document-units="mm"
     inkscape:zoom="0.76702441"
     inkscape:cx="196.21279"
     inkscape:cy="372.21762"
     inkscape:window-width="1920"
     inkscape:window-height="1057"
     inkscape:window-x="1912"
     inkscape:window-y="-8"
     inkscape:window-maximized="1"
     inkscape:current-layer="layer1" />
  <defs
     id="defs1" />
  <g
     inkscape:label="Layer 1"
     inkscape:groupmode="layer"
     id="layer1"
     transform="translate(-53.180109,-49.90615)">
    <path
       d="m 90.645111,51.740595 c -6.879167,5.715 -13.123334,13.6525 -16.898057,21.554723 -5.009444,10.548057 -6.455833,20.708057 -4.938889,34.642782 l 0.282222,2.46944 -2.504722,2.99861 c -1.375833,1.65806 -4.974167,5.92667 -7.972778,9.48973 -4.515556,5.3975 -5.432778,6.63222 -5.432778,7.58472 0.03528,0.59972 1.905,6.49111 4.198055,13.08805 5.609168,16.22778 5.326945,15.52223 6.385279,15.98084 1.940278,0.91722 2.716389,0.42333 4.374444,-2.71639 2.151945,-4.02167 5.750279,-7.19667 8.607779,-7.51417 0.9525,-0.10583 1.023055,0 2.046111,2.89278 0.564444,1.65806 1.375833,3.35139 1.799167,3.77472 l 0.705555,0.81139 h 12.594167 12.594164 l 0.74084,-0.81139 c 0.42333,-0.45861 1.16417,-1.905 1.62278,-3.28083 1.34055,-3.84528 1.23472,-3.70417 2.29305,-3.45722 3.21028,0.77611 6.45584,3.70416 8.60778,7.83166 1.27,2.43417 1.76389,2.89278 3.06917,2.89278 1.76389,0 2.32833,-1.19944 7.09083,-14.99305 2.57528,-7.37306 4.65667,-13.89945 4.69195,-14.49917 0,-0.91722 -0.88195,-2.15195 -5.25639,-7.37306 -2.92806,-3.45722 -6.49111,-7.69055 -7.9375,-9.41917 l -2.64584,-3.175 0.45861,-5.18583 C 120.56067,90.263931 117.77373,78.128374 110.22428,66.521984 105.17956,58.760873 96.465944,49.90615 93.890666,49.90615 c -0.705555,0 -1.693333,0.564445 -3.245555,1.834445 z m 5.679722,6.455833 c 2.681111,2.504722 6.491107,7.020278 8.784167,10.406945 2.04611,3.069167 2.18722,2.822223 -2.57528,3.563056 -3.563053,0.529167 -15.910276,0.670278 -19.684998,0.211667 l -2.398889,-0.3175 0.811389,-1.27 c 2.751666,-4.586112 11.394722,-14.534445 12.594167,-14.534445 0.176388,0 1.305277,0.881944 2.469444,1.940277 z m 14.216947,20.531668 c 2.68111,6.949723 3.4925,11.359446 3.45722,19.014724 0,8.07861 -0.88194,16.12194 -2.8575,26.07028 -1.02305,5.25639 -3.35139,14.67555 -4.40972,17.88583 l -0.56445,1.69334 H 93.890666 81.578722 l -0.705556,-2.39889 c -6.702778,-22.93056 -8.854723,-45.190838 -5.503334,-56.867783 0.776111,-2.610556 2.293056,-6.667501 2.575278,-6.84389 0.141111,-0.07056 1.834445,0.105834 3.774723,0.352778 6.985,0.9525 20.355277,0.493889 25.929167,-0.881944 0.67028,-0.176389 1.41111,-0.317501 1.5875,-0.352778 0.21167,-0.03528 0.77611,1.023056 1.30528,2.328333 z M 70.713165,121.5906 c 0.846667,4.93889 2.786945,13.47611 4.127501,18.0975 0.599722,2.08139 1.023055,3.88055 0.917222,3.98639 -0.105833,0.10583 -1.058334,0.49389 -2.046111,0.84666 -2.293056,0.77612 -5.150556,2.71639 -6.84389,4.58612 -0.670278,0.77611 -1.305278,1.34055 -1.340555,1.27 -0.352778,-0.42334 -6.596945,-19.05001 -6.491112,-19.29695 0.141111,-0.45861 10.618612,-13.05278 10.865556,-13.08806 0.105834,0 0.458612,1.62278 0.811389,3.59834 z m 52.634445,2.78694 c 2.92806,3.4925 5.32695,6.49111 5.3975,6.6675 0.10584,0.28222 -6.17361,18.94417 -6.49111,19.33223 -0.0353,0.0705 -0.67027,-0.52917 -1.37583,-1.30528 -1.65806,-1.83445 -5.11528,-4.1275 -6.985,-4.69195 -0.81139,-0.21166 -1.5875,-0.49389 -1.72861,-0.59972 -0.14111,-0.14111 0.28222,-2.18722 0.9525,-4.62139 1.48167,-5.25639 3.4925,-14.21694 4.09222,-18.27389 0.24695,-1.5875 0.52917,-2.89278 0.635,-2.89278 0.10583,0.0353 2.61056,2.89278 5.50333,6.38528 z m -19.33222,25.78806 -0.45861,1.16417 H 93.925944 84.295111 L 83.8365,150.1656 83.342611,149.03671 H 93.925944 104.474 Z"
       id="path1"
       style="stroke-width:0.0352778" />
    <path
       d="m 90.856778,84.619486 c -4.127501,0.987778 -7.831667,4.021667 -9.560279,7.761111 -0.881944,1.940278 -0.987777,2.54 -0.987777,5.856112 0,3.492501 0.07055,3.880551 1.128888,6.032501 1.375834,2.82222 3.915834,5.29166 6.738056,6.59694 1.763889,0.84667 2.434167,0.9525 5.715,0.9525 3.492501,0 3.880556,-0.0705 6.032501,-1.12889 5.503333,-2.71639 8.607783,-8.71361 7.655273,-14.710829 -0.88194,-5.715 -5.46805,-10.406945 -11.183051,-11.500556 -2.328334,-0.423334 -3.245556,-0.423334 -5.538611,0.141111 z m 7.478889,6.420556 c 4.656663,2.8575 5.397503,9.278058 1.516944,13.158608 -3.386667,3.38667 -8.290278,3.31611 -11.853333,-0.14111 -4.233334,-4.127499 -3.210278,-10.724443 2.081389,-13.405554 2.610555,-1.305278 5.785555,-1.164167 8.255,0.388056 z"
       id="path2"
       style="stroke-width:0.0352778" />
    <path
       d="m 81.049555,160.0081 c -1.199445,0.9525 -1.199445,1.69333 0.282222,8.5725 0.881945,4.1275 1.411111,5.82083 1.975556,6.35 0.705555,0.70556 1.128889,0.74083 9.630833,0.84667 9.207504,0.14111 11.218334,-0.10584 11.853334,-1.27 0.35278,-0.635 2.8575,-12.02973 2.8575,-12.94695 0,-0.3175 -0.38806,-0.9525 -0.88194,-1.41111 l -0.84667,-0.88194 H 93.961222 c -11.571111,0 -11.994445,0.0353 -12.911667,0.74083 z m 20.214165,5.50333 c 0,0.56445 -0.21166,1.76389 -0.45861,2.75167 l -0.38805,1.76389 -6.561671,0.10583 -6.596945,0.0706 -0.564444,-2.50473 c -0.3175,-1.37583 -0.564445,-2.64583 -0.564445,-2.82222 0,-0.17639 3.421945,-0.3175 7.584722,-0.3175 H 101.299 Z"
       id="path3"
       style="stroke-width:0.0352778" />
  </g>
</svg>
