<?xml version="1.0" encoding="UTF-8" standalone="no"?>
<!-- Created with Inkscape (http://www.inkscape.org/) -->

<svg
   width="135.3239mm"
   height="29.823931mm"
   viewBox="0 0 135.3239 29.823931"
   version="1.1"
   id="svg1"
   inkscape:version="1.3.2 (091e20e, 2023-11-25, custom)"
   sodipodi:docname="rocket-cloud.svg"
   xmlns:inkscape="http://www.inkscape.org/namespaces/inkscape"
   xmlns:sodipodi="http://sodipodi.sourceforge.net/DTD/sodipodi-0.dtd"
   xmlns="http://www.w3.org/2000/svg"
   xmlns:svg="http://www.w3.org/2000/svg">
  <sodipodi:namedview
     id="namedview1"
     pagecolor="#ffffff"
     bordercolor="#000000"
     borderopacity="0.25"
     inkscape:showpageshadow="2"
     inkscape:pageopacity="0.0"
     inkscape:pagecheckerboard="0"
     inkscape:deskcolor="#d1d1d1"
     inkscape:document-units="mm"
     inkscape:zoom="0.76702441"
     inkscape:cx="316.15682"
     inkscape:cy="410.02606"
     inkscape:window-width="1920"
     inkscape:window-height="1057"
     inkscape:window-x="1912"
     inkscape:window-y="-8"
     inkscape:window-maximized="1"
     inkscape:current-layer="layer1" />
  <defs
     id="defs1" />
  <g
     inkscape:label="Layer 1"
     inkscape:groupmode="layer"
     id="layer1"
     transform="translate(-21.231012,-39.85812)">
    <path
       d="m 53.642528,40.378815 c -3.915834,1.058333 -8.043334,4.056944 -10.265834,7.549445 l -1.128889,1.763889 h -2.010834 c -8.643056,0 -17.00389,6.949722 -18.803057,15.628056 -0.529166,2.434167 -0.03528,3.668889 1.622778,4.233334 1.622778,0.529166 2.716389,-0.564445 3.492501,-3.4925 0.352777,-1.340556 1.058333,-3.139723 1.552222,-3.98639 2.8575,-4.868333 8.819445,-7.761111 14.534445,-7.055556 2.681112,0.352778 4.621389,1.164167 7.302501,3.175001 1.305278,0.9525 2.645834,1.728611 3.033889,1.728611 1.023056,0 2.398889,-1.5875 2.398889,-2.786945 0,-1.305278 -2.645833,-3.774722 -5.679722,-5.291667 l -2.151945,-1.058333 1.799167,-1.905 c 5.997222,-6.350001 16.298334,-4.762501 20.143612,3.033889 0.670278,1.375833 1.128889,3.033889 1.305278,4.445 0.246944,2.504722 1.023055,3.563056 2.645833,3.563056 1.622778,0 2.398889,-1.093611 2.398889,-3.457223 0,-7.196667 -5.644445,-14.146389 -13.088056,-16.121945 -2.398889,-0.670278 -6.632222,-0.635 -9.101667,0.03528 z"
       id="path4"
       style="fill:#2475ff;fill-opacity:1;stroke-width:0.0352778" />
    <path
       d="m 114.88475,40.343537 c -7.33777,2.010833 -12.94694,8.995834 -12.94694,16.121945 0,2.363612 0.77611,3.457223 2.39889,3.457223 1.51694,0 2.39889,-1.234723 2.68111,-3.704167 0.88194,-8.396112 9.8425,-13.652501 17.42722,-10.230556 1.41111,0.635 2.78695,1.622778 3.98639,2.892778 l 1.79917,1.905 -2.15195,1.058333 c -3.03389,1.516945 -5.67972,3.986389 -5.67972,5.291667 0,1.199445 1.37583,2.786945 2.39889,2.786945 0.38806,0 1.72861,-0.776111 3.03389,-1.728611 2.68111,-2.010834 4.62139,-2.822223 7.3025,-3.175001 5.715,-0.705555 11.67695,2.187223 14.53445,7.055556 0.49388,0.846667 1.19944,2.645834 1.55222,3.98639 0.77611,2.928055 1.86972,4.021666 3.4925,3.4925 0.56444,-0.176389 1.27,-0.740834 1.55222,-1.27 1.16417,-2.046112 -1.34056,-8.466668 -4.72722,-12.135557 -3.59834,-3.915833 -7.9375,-5.997222 -13.15861,-6.35 l -2.92806,-0.211667 -1.09361,-1.693333 c -2.25778,-3.527778 -6.35,-6.491112 -10.37167,-7.549445 -2.50472,-0.635 -6.77333,-0.635 -9.10167,0 z"
       id="path5"
       style="fill:#2475ff;fill-opacity:1;stroke-width:0.0352778" />
    <path
       d="m 79.218918,44.435759 c -0.881944,0.670278 -0.917222,0.881945 -0.917222,3.98639 0,3.774722 0.388055,4.445 2.575278,4.445 1.905,0 2.363611,-0.917222 2.363611,-4.621389 0,-2.928056 -0.03528,-3.139723 -0.917222,-3.810001 -0.529167,-0.423333 -1.199445,-0.740833 -1.552223,-0.740833 -0.352777,0 -1.023055,0.3175 -1.552222,0.740833 z"
       id="path6"
       style="fill:#2475ff;fill-opacity:1;stroke-width:0.0352778" />
    <path
       d="m 87.544474,44.118259 c -1.27,0.635 -1.552222,2.398889 -1.411111,8.995834 0.105833,5.715001 0.141111,6.138334 0.881944,6.84389 1.023056,1.023055 2.857501,0.987777 3.704167,-0.07056 0.564445,-0.670278 0.635,-1.5875 0.635,-7.549445 0,-5.961945 -0.07055,-6.879167 -0.599722,-7.514167 -0.776111,-0.917222 -2.151944,-1.234722 -3.210278,-0.705556 z"
       id="path7"
       style="fill:#2475ff;fill-opacity:1;stroke-width:0.0352778" />
    <path
       d="m 95.693641,44.047704 c -1.199444,0.493889 -1.516944,1.481667 -1.516944,4.550833 0,3.316112 0.564444,4.268612 2.575278,4.268612 1.763889,0 2.469444,-0.987778 2.645833,-3.704167 0.176389,-2.751667 -0.352778,-4.515556 -1.552222,-5.08 -1.023056,-0.458612 -1.093611,-0.458612 -2.151945,-0.03528 z"
       id="path8"
       style="fill:#2475ff;fill-opacity:1;stroke-width:0.0352778" />
  </g>
</svg>
