<?xml version="1.0" encoding="UTF-8" standalone="no"?>
<svg
   version="1.0"
   width="512.000000pt"
   height="512.000000pt"
   viewBox="0 0 512.000000 512.000000"
   preserveAspectRatio="xMidYMid meet"
   id="svg8"
   sodipodi:docname="rocket.svg"
   inkscape:version="1.3.2 (091e20e, 2023-11-25, custom)"
   xmlns:inkscape="http://www.inkscape.org/namespaces/inkscape"
   xmlns:sodipodi="http://sodipodi.sourceforge.net/DTD/sodipodi-0.dtd"
   xmlns="http://www.w3.org/2000/svg"
   xmlns:svg="http://www.w3.org/2000/svg">
  <defs
     id="defs8" />
  <sodipodi:namedview
     id="namedview8"
     pagecolor="#ffffff"
     bordercolor="#000000"
     borderopacity="0.25"
     inkscape:showpageshadow="2"
     inkscape:pageopacity="0.0"
     inkscape:pagecheckerboard="0"
     inkscape:deskcolor="#d1d1d1"
     inkscape:document-units="pt"
     inkscape:zoom="1.2612305"
     inkscape:cx="341.33333"
     inkscape:cy="341.33333"
     inkscape:window-width="1920"
     inkscape:window-height="1057"
     inkscape:window-x="1912"
     inkscape:window-y="-8"
     inkscape:window-maximized="1"
     inkscape:current-layer="svg8" />
  <g
     transform="translate(0.000000,512.000000) scale(0.100000,-0.100000)"
     fill="#000000"
     stroke="none"
     id="g8">
    <path
       d="M2468 4708 c-195 -162 -372 -387 -479 -611 -142 -299 -183 -587 -140 -982 l8 -70 -71 -85 c-39 -47 -141 -168 -226 -269 -128 -153 -154 -188 -154 -215 1 -17 54 -184 119 -371 159 -460 151 -440 181 -453 55 -26 77 -12 124 77 61 114 163 204 244 213 27 3 29 0 58 -82 16 -47 39 -95 51 -107 l20 -23 357 0 357 0 21 23 c12 13 33 54 46 93 38 109 35 105 65 98 91 -22 183 -105 244 -222 36 -69 50 -82 87 -82 50 0 66 34 201 425 73 209 132 394 133 411 0 26 -25 61 -149 209 -83 98 -184 218 -225 267 l-75 90 13 147 c38 427 -41 771 -255 1100 -143 220 -390 471 -463 471 -20 0 -48 -16 -92 -52z m161 -183 c76 -71 184 -199 249 -295 58 -87 62 -80 -73 -101 -101 -15 -451 -19 -558 -6 l-68 9 23 36 c78 130 323 412 357 412 5 0 37 -25 70 -55z m403 -582 c76 -197 99 -322 98 -539 0 -229 -25 -457 -81 -739 -29 -149 -95 -416 -125 -507 l-16 -48 -348 0 -349 0 -20 68 c-190 650 -251 1281 -156 1612 22 74 65 189 73 194 4 2 52 -3 107 -10 198 -27 577 -14 735 25 19 5 40 9 45 10 6 1 22 -29 37 -66z m-1129 -1215 c24 -140 79 -382 117 -513 17 -59 29 -110 26 -113 -3 -3 -30 -14 -58 -24 -65 -22 -146 -77 -194 -130 -19 -22 -37 -38 -38 -36 -10 12 -187 540 -184 547 4 13 301 370 308 371 3 0 13 -46 23 -102z m1492 -79 c83 -99 151 -184 153 -189 3 -8 -175 -537 -184 -548 -1 -2 -19 15 -39 37 -47 52 -145 117 -198 133 -23 6 -45 14 -49 17 -4 4 8 62 27 131 42 149 99 403 116 518 7 45 15 82 18 82 3 -1 74 -82 156 -181z m-548 -731 l-13 -33 -273 0 -273 0 -13 33 -14 32 300 0 299 0 -13 -32z"
       id="path1" />
    <path
       d="M2474 3776 c-117 -28 -222 -114 -271 -220 -25 -55 -28 -72 -28 -166 0 -99 2 -110 32 -171 39 -80 111 -150 191 -187 50 -24 69 -27 162 -27 99 0 110 2 171 32 156 77 244 247 217 417 -25 162 -155 295 -317 326 -66 12 -92 12 -157 -4z m212 -182 c132 -81 153 -263 43 -373 -96 -96 -235 -94 -336 4 -120 117 -91 304 59 380 74 37 164 33 234 -11z"
       id="path2" />
    <path
       d="M2196 1639 c-34 -27 -34 -48 8 -243 25 -117 40 -165 56 -180 20 -20 32 -21 273 -24 261 -4 318 3 336 36 10 18 81 341 81 367 0 9 -11 27 -25 40 l-24 25 -339 0 c-328 0 -340 -1 -366 -21z m573 -156 c0 -16 -6 -50 -13 -78 l-11 -50 -186 -3 -187 -2 -16 71 c-9 39 -16 75 -16 80 0 5 97 9 215 9 l215 0 -1 -27z"
       id="path3" />
    <path
       d="M1561 1194 c-111 -30 -228 -115 -291 -214 l-32 -50 -57 0 c-245 0 -482 -197 -533 -443 -15 -69 -1 -104 46 -120 46 -15 77 16 99 99 10 38 30 89 44 113 81 138 250 220 412 200 76 -10 131 -33 207 -90 37 -27 75 -49 86 -49 29 0 68 45 68 79 0 37 -75 107 -161 150 l-61 30 51 54 c170 180 462 135 571 -86 19 -39 32 -86 37 -126 7 -71 29 -101 75 -101 46 0 68 31 68 98 0 204 -160 401 -371 457 -68 19 -188 18 -258 -1z"
       id="path4"
       style="fill:#2475ff;fill-opacity:1" />
    <path
       d="M3297 1195 c-208 -57 -367 -255 -367 -457 0 -67 22 -98 68 -98 43 0 68 35 76 105 25 238 279 387 494 290 40 -18 79 -46 113 -82 l51 -54 -61 -30 c-86 -43 -161 -113 -161 -150 0 -34 39 -79 68 -79 11 0 49 22 86 49 76 57 131 80 207 90 162 20 331 -62 412 -200 14 -24 34 -75 44 -113 22 -83 53 -114 99 -99 16 5 36 21 44 36 33 58 -38 240 -134 344 -102 111 -225 170 -373 180 l-83 6 -31 48 c-64 100 -180 184 -294 214 -71 18 -192 18 -258 0z"
       id="path5"
       style="fill:#2475ff;fill-opacity:1" />
    <path
       d="M2286 1079 c-25 -19 -26 -25 -26 -113 0 -107 11 -126 73 -126 54 0 67 26 67 131 0 83 -1 89 -26 108 -15 12 -34 21 -44 21 -10 0 -29 -9 -44 -21z"
       id="path6"
       style="fill:#2475ff;fill-opacity:1" />
    <path
       d="M2522 1088 c-36 -18 -44 -68 -40 -255 3 -162 4 -174 25 -194 29 -29 81 -28 105 2 16 19 18 45 18 214 0 169 -2 195 -17 213 -22 26 -61 35 -91 20z"
       id="path7"
       style="fill:#2475ff;fill-opacity:1" />
    <path
       d="M2753 1090 c-34 -14 -43 -42 -43 -129 0 -94 16 -121 73 -121 50 0 70 28 75 105 5 78 -10 128 -44 144 -29 13 -31 13 -61 1z"
       id="path8"
       style="fill:#2475ff;fill-opacity:1" />
  </g>
</svg>
