<?xml version="1.0" encoding="UTF-8" standalone="no"?>
<svg
   viewBox="0 0 3046.7 875.70001"
   version="1.1"
   id="svg4"
   sodipodi:docname="webpack.svg"
   width="3046.7"
   height="875.70001"
   inkscape:version="1.3.2 (091e20e, 2023-11-25, custom)"
   xmlns:inkscape="http://www.inkscape.org/namespaces/inkscape"
   xmlns:sodipodi="http://sodipodi.sourceforge.net/DTD/sodipodi-0.dtd"
   xmlns="http://www.w3.org/2000/svg"
   xmlns:svg="http://www.w3.org/2000/svg">
  <defs
     id="defs4" />
  <sodipodi:namedview
     id="namedview4"
     pagecolor="#ffffff"
     bordercolor="#000000"
     borderopacity="0.25"
     inkscape:showpageshadow="2"
     inkscape:pageopacity="0.0"
     inkscape:pagecheckerboard="0"
     inkscape:deskcolor="#d1d1d1"
     inkscape:zoom="0.35827375"
     inkscape:cx="1536.5346"
     inkscape:cy="428.44334"
     inkscape:window-width="1920"
     inkscape:window-height="1057"
     inkscape:window-x="1912"
     inkscape:window-y="-8"
     inkscape:window-maximized="1"
     inkscape:current-layer="svg4" />
  <title
     id="title1">logo-on-white-bg</title>
  <path
     fill="#ffffff"
     d="M 387,0 774,218.9 V 656.8 L 387,875.7 0,656.8 V 218.9 Z"
     id="path1" />
  <path
     fill="#8ed6fb"
     d="M 704.9,641.7 399.8,814.3 V 679.9 L 589.9,575.3 Z m 20.9,-18.9 V 261.9 l -111.6,64.5 v 232 z M 67.9,641.7 373,814.3 V 679.9 L 182.8,575.3 Z M 47,622.8 V 261.9 l 111.6,64.5 v 232 z M 60.1,238.5 373,61.5 v 129.9 l -200.5,110.3 -1.6,0.9 z m 652.6,0 -312.9,-177 v 129.9 l 200.5,110.2 1.6,0.9 z"
     id="path2" />
  <path
     fill="#1c78c0"
     d="M 373,649.3 185.4,546.1 V 341.8 L 373,450.1 Z m 26.8,0 187.6,-103.1 V 341.8 L 399.8,450.1 Z m -13.4,-207 z M 198.1,318.2 386.4,214.7 574.7,318.2 386.4,426.9 Z"
     id="path3" />
  <path
     fill="#1a1c1c"
     d="m 1164.3,576.3 h 82.5 l 84.1,-280.2 h -80.4 l -49.8,198.8 -53.1,-198.8 H 1078 l -53.6,198.8 -49.3,-198.8 h -80.4 l 83.6,280.2 h 82.5 l 52,-179.5 z M 1335.2,437 c 0,84.1 57.3,146.3 147.4,146.3 69.7,0 107.2,-41.8 117.9,-61.6 l -48.8,-37 c -8,11.8 -30,34.3 -68.1,34.3 -41.3,0 -71.3,-26.8 -72.9,-64.3 H 1608 c 0.5,-5.4 0.5,-10.7 0.5,-16.1 0,-91.6 -49.3,-149.5 -136.1,-149.5 -79.9,0 -137.2,63.2 -137.2,147.9 z m 77.7,-30.6 c 3.2,-32.1 25.7,-56.8 60.6,-56.8 33.8,0 58.4,22.5 60,56.8 z m 223.5,169.9 h 69.7 v -28.9 c 7.5,9.1 35.4,35.9 83.1,35.9 80.4,0 137.2,-60.5 137.2,-146.8 0,-86.8 -52.5,-147.3 -132.9,-147.3 -48.2,0 -76.1,26.8 -83.1,36.4 V 188.9 h -73.9 V 576.3 Z M 1708.2,437 c 0,-52.5 31.1,-82.5 71.8,-82.5 42.9,0 71.8,33.8 71.8,82.5 0,49.8 -30,80.9 -71.8,80.9 -45,0 -71.8,-36.5 -71.8,-80.9 z m 247,239.5 h 73.9 V 547.3 c 7,9.1 34.8,35.9 83.1,35.9 80.4,0 132.9,-60.5 132.9,-147.3 0,-85.7 -56.8,-146.8 -137.2,-146.8 -47.7,0 -75.6,26.8 -83.1,36.4 V 296 h -69.7 V 676.5 Z M 2027,435.4 c 0,-44.5 26.8,-80.9 71.8,-80.9 41.8,0 71.8,31.1 71.8,80.9 0,48.8 -28.9,82.5 -71.8,82.5 -40.7,0 -71.8,-30 -71.8,-82.5 z m 231.5,54.1 c 0,58.9 48.2,93.8 105,93.8 32.2,0 53.6,-9.6 68.1,-25.2 l 4.8,18.2 h 65.4 V 398.9 c 0,-62.7 -26.8,-109.8 -116.8,-109.8 -42.9,0 -85.2,16.1 -110.4,33.2 l 27.9,50.4 c 20.9,-10.7 46.6,-19.8 74.5,-19.8 32.7,0 50.9,16.6 50.9,41.3 v 18.2 c -10.2,-7 -32.2,-15.5 -60.6,-15.5 -65.4,-0.1 -108.8,37.4 -108.8,92.6 z m 73.9,-2.2 c 0,-23 19.8,-39.1 48.2,-39.1 28.4,0 48.8,14.5 48.8,39.1 0,23.6 -20.4,38.6 -48.2,38.6 -27.8,0 -48.8,-15.5 -48.8,-38.6 z m 348.9,30.6 c -46.6,0 -79.8,-33.8 -79.8,-81.4 0,-45 29.5,-82 77.2,-82 31.6,0 53.1,15.5 65.4,26.8 l 20.9,-62.2 c -18.2,-13.9 -47.2,-30 -88.4,-30 -85.2,0 -149,62.7 -149,147.9 0,85.2 62.2,146.3 149.5,146.3 40.7,0 71.3,-17.1 87.3,-30 l -19.8,-60.5 c -12.4,10.1 -34.9,25.1 -63.3,25.1 z m 110.9,58.4 h 73.9 V 431.6 l 93.8,144.7 h 86.8 L 2940.6,423 3039.2,296 h -83.1 l -90,117.9 v -225 h -73.9 z"
     id="path4" />
</svg>
